<svg height="512" viewBox="0 0 64 64" width="512" xmlns="http://www.w3.org/2000/svg"><g id="Cafe-coffee-cup-hot-3" data-name="Cafe-coffee-cup-hot"><path d="m46 15v4h-28v-4a2.006 2.006 0 0 1 2-2h24a2.006 2.006 0 0 1 2 2z" fill="#d9ccbc"/><path d="m46 26-.17 6h-22.83-2-2.83l-.17-6z" fill="#957856"/><path d="m50 21v5h-36v-5a2.006 2.006 0 0 1 2-2h32a2.006 2.006 0 0 1 2 2z" fill="#e0e0e2"/><path d="m45.83 32-.77 27.06a2.007 2.007 0 0 1 -2 1.94h-22.12a2.007 2.007 0 0 1 -2-1.94l-.77-27.06z" fill="#c0ab91"/><path d="m26 11h-2v-1a5.006 5.006 0 0 1 5-5h2a3 3 0 0 0 3-3h2a5.006 5.006 0 0 1 -5 5h-2a3 3 0 0 0 -3 3z" fill="#e0e0e2"/><path d="m38 11h-2v-1a5.006 5.006 0 0 1 5-5h2a3 3 0 0 0 3-3h2a5.006 5.006 0 0 1 -5 5h-2a3 3 0 0 0 -3 3z" fill="#e0e0e2"/><rect fill="#fff" height="3" rx="1.5" width="7" x="16" y="20"/></g></svg>